<svg xmlns="http://www.w3.org/2000/svg"><symbol id="mecha-stilts" viewBox="0 0 256 256"><path d="M50.3 146.9h48.4v19.98H50.3zm52-57.2v40.1H152a53.6 53.6 0 0 0-49.7-40.1zm0 57.2h8.1v19.98h-8.1zm-5.4-57c-23 1.4-42.3 18.1-47.9 39.9h19.3zm1.8 39.9V93.5l-25.9 36.3h25.9z"/><path d="M100.5 20.4L5.6 75.2v109.6l94.9 54.8 94.9-54.8V75.2zm77.6 126.5h-23.8v21.8a1.7 1.7 0 0 1-1.8 1.8h-104a1.7 1.7 0 0 1-1.8-1.8v-21.8H22.9a1.8 1.8 0 1 1 0-3.6h13.5v-11.7a1.7 1.7 0 0 1 1.8-1.8h7a57.2 57.2 0 0 1 55.1-43.7c.2-.2.4-.2.7 0a57 57 0 0 1 54.8 43.7h7a1.7 1.7 0 0 1 1.8 1.8v11.7h13.5a1.8 1.8 0 1 1 0 3.6z"/><path d="M114 146.9h36.7v19.98H114zm-74-13.5h121v9.9H40z"/></symbol><symbol id="space-bubbles" viewBox="0 0 256 256"><path d="M64.9 166.9h24.4l-7.3-9-17.1 9zm-12.6-31.1h98.5v9.36H52.3zm26.6 12.9L94 166.9h13l15.1-18.2H78.9zm59.4-16.5a45.2 45.2 0 0 0 2.2-13.7 39 39 0 0 0-78 0c0 4.7.4 9.5 2.2 13.7zm-64.1 16.5H62.3l-15.8 18.7L49 171l30.4-16-5.2-6.3z"/><path d="M100.5 20.4L5.6 75.2v109.6l94.9 54.8 94.9-54.8V75.2zm57.6 148.1l-4.1 6a2 2 0 0 1-2.4.5l-8.6-4.5H57.8l-8.6 4.5a1.9 1.9 0 0 1-2.3-.5l-4.2-6a2 2 0 0 1 .2-2.1l14.9-17.7h-7.3a1.7 1.7 0 0 1-1.8-1.8V134a1.7 1.7 0 0 1 1.8-1.8h10.4a49.4 49.4 0 0 1-2-13.7 42.6 42.6 0 0 1 85.2 0 45.9 45.9 0 0 1-2 13.7h10.4a1.7 1.7 0 0 1 1.8 1.8v12.9a1.7 1.7 0 0 1-1.8 1.8h-9.2l14.8 17.7a1.8 1.8 0 0 1 0 2.1z"/><path d="M126.8 148.7l-5.4 6.3 30.6 16 2.5-3.4-15.8-18.9h-11.9zm-15.1 18.2h24.4l-17.1-9-7.3 9z"/></symbol><symbol id="super-domes" viewBox="0 0 256 256"><path d="M109.9 155.6h18v11.34h-18zm-15.2 0h11.5v11.34H94.7zm-21.6 0h18v11.34h-18zm27.4-75.1c-21.1 0-38.7 12.8-39.6 36h79.2c-.9-23.2-18.5-36-39.6-36zM58 155.6h11.5v11.34H58zm73.5 0H143v11.34h-11.5zM47.2 152h106.6v-31.9H47.2zm52.4-12.3h43.9a1.8 1.8 0 0 1 0 3.6H99.6a1.8 1.8 0 1 1 0-3.6z"/><path d="M100.5 20.4L5.6 75.2v109.6l94.9 54.8 94.9-54.8V75.2zm56.9 133.4a1.7 1.7 0 0 1-1.8 1.8h-9v11.3h9a1.8 1.8 0 1 1 0 3.6H45.4a1.8 1.8 0 1 1 0-3.6h9v-11.3h-9a1.7 1.7 0 0 1-1.8-1.8v-35.5a1.7 1.7 0 0 1 1.8-1.8h11.9c.9-25.6 20-39.6 43.2-39.6s42.3 14 43.2 39.6h11.9a1.7 1.7 0 0 1 1.8 1.8z"/></symbol></svg>